<svg width="1500" height="410" viewBox="0 0 1500 410" xmlns="http://www.w3.org/2000/svg" xmlns:xlink="http://www.w3.org/1999/xlink" id="Ebene_1" xml:space="preserve" overflow="hidden"><g><path d="M182.189 389.261 189.172 389.261 199.802 338.034 216.567 338.034 217.756 332.502 175.723 332.502 174.535 338.034 192.829 338.034 182.189 389.261Z" fill="#000099"/><path d="M240.316 380.33C233.932 384.333 231.545 385.263 227.806 385.263 221.587 385.263 217.342 380.584 217.342 373.689 217.342 372.501 217.425 371.395 217.848 368.581L245.419 368.581C245.594 365.771 245.677 364.077 245.677 362.796 245.677 352.503 241.245 347.142 232.826 347.142 226.359 347.142 220.657 350.457 216.143 356.759 212.745 361.691 210.957 367.218 210.957 373.008 210.957 383.653 217.082 390.46 226.617 390.46 229.675 390.46 232.908 389.686 235.635 388.332 237.505 387.475 237.846 387.31 242.608 384.417L240.316 380.33 240.316 380.33ZM218.954 364.241C220.4 360.673 221.164 359.138 222.528 357.351 225.255 353.689 228.912 351.561 232.569 351.561 237.083 351.561 239.635 354.887 239.635 360.672 239.635 361.266 239.552 362.888 239.459 364.24L218.954 364.24 218.954 364.241Z" fill="#000099" fill-rule="evenodd" clip-rule="evenodd"/><path d="M282.184 381.095C277.504 384.241 274.188 385.439 270.273 385.439 264.395 385.439 260.232 380.754 260.232 374.123 260.232 361.866 270.015 352.161 282.359 352.161 283.805 352.161 284.735 352.244 286.615 352.585L288.485 347.988C285.592 347.311 284.229 347.141 281.76 347.141 266.017 347.141 253.507 358.968 253.507 373.947 253.507 383.9 259.633 390.625 268.744 390.625 273.93 390.625 277.245 389.437 284.57 384.923L282.184 381.095 282.184 381.095Z" fill="#000099"/><path d="M292.308 389.261 298.774 389.261 304.559 361.443C310.861 355.559 316.057 352.503 319.713 352.503 322.347 352.503 324.134 354.207 324.134 356.759 324.134 358.034 323.793 360.503 323.204 363.313L317.75 389.262 324.392 389.262 330.352 360.761C330.775 358.716 331.023 356.583 331.023 355.137 331.023 350.374 327.707 347.142 322.687 347.142 317.067 347.142 311.024 350.292 305.663 355.995L311.458 328.248 304.991 328.248 292.308 389.261 292.308 389.261Z" fill="#000099"/><path d="M338.606 389.261 345.073 389.261 350.94 361.35C357.324 355.477 362.603 352.419 366.094 352.419 368.811 352.419 370.515 354.206 370.515 357.011 370.515 358.115 370.432 358.88 370.257 359.821L364.132 389.261 370.774 389.261 376.724 360.585C377.065 358.798 377.323 356.758 377.323 355.312 377.323 350.291 374.007 347.141 368.646 347.141 363.109 347.141 358.512 349.61 351.364 356.242L353.585 348.329 347.119 348.329 338.606 389.261 338.606 389.261Z" fill="#000099"/><path d="M385.071 389.261 391.785 389.261 400.214 348.328 393.572 348.328 385.071 389.261 385.071 389.261ZM395.277 339.48 402.26 339.48 403.789 332.244 396.806 332.244 395.277 339.48 395.277 339.48Z" fill="#000099" fill-rule="evenodd" clip-rule="evenodd"/><path d="M404.295 388.155C408.644 389.942 411.02 390.459 415.028 390.459 424.976 390.459 431.453 385.521 431.453 377.861 431.453 373.781 429.067 370.29 424.553 367.733L420.39 365.346C417.663 363.818 416.299 361.772 416.299 359.308 416.299 354.794 420.049 351.902 425.751 351.902 428.809 351.902 431.36 352.326 434.428 353.348L436.215 348.844C432.299 347.651 429.232 347.14 425.751 347.14 416.216 347.14 409.75 352.16 409.75 359.649 409.75 363.9 412.043 367.557 416.217 369.861L419.192 371.477C423.365 373.864 424.894 375.733 424.894 378.625 424.894 382.793 420.979 385.603 415.111 385.603 412.136 385.603 409.75 385.097 406.341 383.651L404.295 388.155 404.295 388.155Z" fill="#000099"/><path d="M469.653 381.095C464.974 384.241 461.658 385.439 457.743 385.439 451.875 385.439 447.702 380.754 447.702 374.123 447.702 361.866 457.485 352.161 469.829 352.161 471.275 352.161 472.205 352.244 474.085 352.585L475.955 347.988C473.062 347.311 471.699 347.141 469.23 347.141 453.487 347.141 440.978 358.968 440.978 373.947 440.978 383.9 447.103 390.625 456.214 390.625 461.4 390.625 464.716 389.437 472.04 384.923L469.653 381.095 469.653 381.095Z" fill="#000099"/><path d="M479.777 389.261 486.244 389.261 492.029 361.443C498.33 355.559 503.526 352.503 507.183 352.503 509.817 352.503 511.604 354.207 511.604 356.759 511.604 358.034 511.263 360.503 510.674 363.313L505.22 389.262 511.863 389.262 517.823 360.761C518.247 358.716 518.505 356.583 518.505 355.137 518.505 350.374 515.178 347.142 510.158 347.142 504.538 347.142 498.506 350.292 493.134 355.995L498.929 328.248 492.462 328.248 479.777 389.261 479.777 389.261Z" fill="#000099"/><path d="M556.798 380.33C550.414 384.333 548.027 385.263 544.288 385.263 538.069 385.263 533.813 380.584 533.813 373.689 533.813 372.501 533.906 371.395 534.33 368.581L561.901 368.581C562.066 365.771 562.159 364.077 562.159 362.796 562.159 352.503 557.727 347.142 549.308 347.142 542.841 347.142 537.139 350.457 532.625 356.759 529.226 361.691 527.429 367.218 527.429 373.008 527.429 383.653 533.565 390.46 543.09 390.46 546.158 390.46 549.391 389.686 552.118 388.332 553.988 387.475 554.328 387.31 559.091 384.417L556.798 380.33 556.798 380.33ZM535.435 364.241C536.881 360.673 537.645 359.138 539.009 357.351 541.736 353.689 545.393 351.561 549.05 351.561 553.564 351.561 556.115 354.887 556.115 360.672 556.115 361.266 556.022 362.888 555.94 364.24L535.435 364.24 535.435 364.241Z" fill="#000099" fill-rule="evenodd" clip-rule="evenodd"/><path d="M652.475 332.502 645.585 332.502 638.013 369.009C635.709 380.072 630.182 385.522 621.247 385.522 613.242 385.522 607.88 380.837 607.88 373.782 607.88 371.819 608.138 369.862 608.562 367.734L615.886 332.503 608.903 332.503 601.838 366.711C601.249 369.263 600.99 371.819 600.99 374.03 600.99 384.241 608.48 390.46 620.648 390.46 628.055 390.46 634.005 388.239 638.096 384.076 641.494 380.497 643.282 376.664 644.728 369.438L652.475 332.502 652.475 332.502Z" fill="#000099"/><path d="M655.636 389.261 662.102 389.261 667.98 361.35C674.354 355.477 679.632 352.419 683.124 352.419 685.851 352.419 687.545 354.206 687.545 357.011 687.545 358.115 687.462 358.88 687.297 359.821L681.161 389.261 687.803 389.261 693.763 360.585C694.104 358.798 694.352 356.758 694.352 355.312 694.352 350.291 691.036 347.141 685.675 347.141 680.148 347.141 675.551 349.61 668.403 356.242L670.614 348.329 664.147 348.329 655.636 389.261 655.636 389.261Z" fill="#000099"/><path d="M702.1 389.261 708.825 389.261 717.244 348.328 710.612 348.328 702.1 389.261 702.1 389.261ZM712.316 339.48 719.289 339.48 720.818 332.244 713.845 332.244 712.316 339.48 712.316 339.48Z" fill="#000099" fill-rule="evenodd" clip-rule="evenodd"/><path d="M734.691 389.261 740.394 389.261 763.378 349.691 757.758 347.311 739.03 381.007 732.232 347.311 725.756 348.845 734.691 389.261Z" fill="#000099"/><path d="M794.203 380.33C787.818 384.333 785.432 385.263 781.693 385.263 775.484 385.263 771.228 380.584 771.228 373.689 771.228 372.501 771.31 371.395 771.734 368.581L799.305 368.581C799.481 365.771 799.564 364.077 799.564 362.796 799.564 352.503 795.142 347.142 786.712 347.142 780.245 347.142 774.544 350.457 770.029 356.759 766.631 361.691 764.843 367.218 764.843 373.008 764.843 383.653 770.969 390.46 780.503 390.46 783.561 390.46 786.794 389.686 789.522 388.332 791.391 387.475 791.732 387.31 796.495 384.417L794.203 380.33 794.203 380.33ZM772.84 364.241C774.286 360.673 775.051 359.138 776.414 357.351 779.142 353.689 782.799 351.561 786.455 351.561 790.969 351.561 793.52 354.887 793.52 360.672 793.52 361.266 793.437 362.888 793.345 364.24L772.84 364.24 772.84 364.241Z" fill="#000099" fill-rule="evenodd" clip-rule="evenodd"/><path d="M806.712 389.261 813.096 389.261 818.964 361.008C823.653 354.795 825.864 353.266 830.027 353.266 831.308 353.266 831.99 353.442 833.518 353.866L835.222 347.652C833.601 347.311 832.836 347.223 831.824 347.223 827.135 347.223 823.054 349.951 819.656 355.477L821.608 348.329 815.224 348.329 806.712 389.261 806.712 389.261Z" fill="#000099" fill-rule="evenodd" clip-rule="evenodd"/><path d="M833.87 388.155C838.209 389.942 840.595 390.459 844.592 390.459 854.551 390.459 861.018 385.521 861.018 377.861 861.018 373.781 858.631 370.29 854.127 367.733L849.953 365.346C847.226 363.818 845.863 361.772 845.863 359.308 845.863 354.794 849.613 351.902 855.314 351.902 858.373 351.902 860.934 352.326 863.992 353.348L865.779 348.844C861.864 347.651 858.806 347.14 855.314 347.14 845.78 347.14 839.314 352.16 839.314 359.649 839.314 363.9 841.617 367.557 845.78 369.861L848.765 371.477C852.928 373.864 854.456 375.733 854.456 378.625 854.456 382.793 850.542 385.603 844.674 385.603 841.699 385.603 839.314 385.097 835.914 383.651L833.87 388.155 833.87 388.155Z" fill="#000099"/><path d="M870.035 389.261 876.76 389.261 885.18 348.328 878.547 348.328 870.035 389.261 870.035 389.261ZM880.241 339.48 887.224 339.48 888.753 332.244 881.779 332.244 880.241 339.48 880.241 339.48Z" fill="#000099" fill-rule="evenodd" clip-rule="evenodd"/><path d="M893.608 353.008 902.368 353.008 898.123 373.441C897.183 377.862 897.007 378.967 897.007 381.095 897.007 386.709 900.416 390.459 905.52 390.459 908.928 390.459 910.117 390.025 917.347 386.027L915.395 382.112C910.798 384.581 909.269 385.18 907.389 385.18 905.013 385.18 903.309 383.476 903.309 381.094 903.309 379.648 903.65 377.344 904.166 374.627L908.67 353.007 918.369 353.007 919.309 348.327 909.609 348.327 913.007 332.243 906.623 332.243 903.308 348.327 894.537 348.327 893.608 353.008 893.608 353.008Z" fill="#000099"/><path d="M958.543 383.899C956.074 385.262 955.568 385.521 954.628 385.521 953.523 385.521 952.924 384.756 952.924 383.222 952.924 382.2 953.017 381.606 953.606 378.625L957.438 360.243C957.862 358.373 958.12 356.24 958.12 355.052 958.12 349.949 954.805 347.14 948.669 347.14 943.142 347.14 937.78 349.102 930.808 353.606L933.443 357.439C939.392 353.606 943.566 351.902 947.223 351.902 950.198 351.902 951.995 353.348 951.995 355.734 951.995 356.241 951.901 356.839 951.819 357.439L950.538 363.57C943.565 364.324 939.226 365.181 935.477 366.545 927.987 369.18 924.073 373.781 924.073 379.989 924.073 385.862 928.67 390.459 934.713 390.459 939.227 390.459 943.049 388.414 947.223 383.899L947.14 385.686C947.14 388.579 948.834 390.458 951.314 390.458 953.101 390.458 954.546 389.941 957.698 388.154 958.545 387.731 959.392 387.224 960.156 386.708L958.543 383.899 958.543 383.899ZM947.222 379.391 945.176 381.519C942.883 383.993 939.485 385.604 936.674 385.604 933.018 385.604 930.291 382.882 930.291 379.226 930.291 376.158 931.995 373.524 935.229 371.561 938.204 369.779 942.119 368.756 949.691 367.558L947.222 379.391 947.222 379.391ZM937.016 339.057 943.648 339.057 945.094 332.245 938.461 332.245 937.016 339.057 937.016 339.057ZM951.137 339.057 957.779 339.057 959.143 332.245 952.5 332.245 951.137 339.057 951.137 339.057Z" fill="#000099" fill-rule="evenodd" clip-rule="evenodd"/><path d="M969.617 353.008 978.377 353.008 974.121 373.441C973.191 377.862 973.016 378.967 973.016 381.095 973.016 386.709 976.414 390.459 981.528 390.459 984.937 390.459 986.125 390.025 993.356 386.027L991.403 382.112C986.807 384.581 985.278 385.18 983.408 385.18 981.022 385.18 979.317 383.476 979.317 381.094 979.317 379.648 979.659 377.344 980.165 374.627L984.679 353.007 994.379 353.007 995.309 348.327 985.62 348.327 989.018 332.243 982.644 332.243 979.318 348.327 970.548 348.327 969.617 353.008 969.617 353.008Z" fill="#000099"/><path d="M1028.27 389.261 1035.16 389.261 1040.7 362.454 1070.48 362.454 1064.95 389.261 1071.84 389.261 1083.67 332.502 1076.78 332.502 1071.68 357.099 1041.81 357.099 1046.92 332.502 1040.1 332.502 1028.27 389.261Z" fill="#000099"/><path d="M1121.14 383.899C1118.67 385.262 1118.15 385.521 1117.22 385.521 1116.11 385.521 1115.52 384.756 1115.52 383.222 1115.52 382.2 1115.6 381.606 1116.2 378.625L1120.02 360.243C1120.46 358.373 1120.7 356.24 1120.7 355.052 1120.7 349.949 1117.39 347.14 1111.25 347.14 1105.73 347.14 1100.36 349.102 1093.39 353.606L1096.03 357.439C1101.99 353.606 1106.15 351.902 1109.81 351.902 1112.79 351.902 1114.58 353.348 1114.58 355.734 1114.58 356.241 1114.49 356.839 1114.4 357.439L1113.13 363.57C1106.15 364.324 1101.81 365.181 1098.07 366.545 1090.57 369.18 1086.67 373.781 1086.67 379.989 1086.67 385.862 1091.25 390.459 1097.31 390.459 1101.81 390.459 1105.64 388.414 1109.81 383.899L1109.72 385.686C1109.72 388.579 1111.43 390.458 1113.9 390.458 1115.68 390.458 1117.13 389.941 1120.28 388.154 1121.14 387.731 1121.98 387.224 1122.75 386.708L1121.14 383.899 1121.14 383.899ZM1109.81 379.391 1107.77 381.519C1105.47 383.993 1102.07 385.604 1099.26 385.604 1095.6 385.604 1092.88 382.882 1092.88 379.226 1092.88 376.158 1094.58 373.524 1097.81 371.561 1100.8 369.779 1104.7 368.756 1112.28 367.558L1109.81 379.391 1109.81 379.391Z" fill="#000099" fill-rule="evenodd" clip-rule="evenodd"/><path d="M1129.91 389.261 1136.28 389.261 1142.16 360.673C1148.97 355.312 1153.65 352.667 1156.63 352.667 1159.18 352.667 1160.71 354.113 1160.71 356.582 1160.71 357.692 1160.71 358.115 1160.54 358.88L1154.25 389.261 1160.63 389.261 1166.5 360.673C1173.14 355.136 1177.74 352.502 1180.97 352.502 1183.26 352.502 1184.87 353.947 1184.87 355.9 1184.87 357.01 1184.71 358.457 1184.37 360.078L1178.32 389.261 1184.87 389.261 1190.83 360.673C1191.18 358.88 1191.43 356.758 1191.43 355.394 1191.43 350.116 1188.62 347.141 1183.85 347.141 1178.67 347.141 1172.97 350.116 1167.35 355.735L1167.35 354.289C1167.35 350.209 1164.29 347.142 1160.03 347.142 1155.19 347.142 1150.51 349.528 1142.93 355.736L1144.71 348.33 1138.41 348.33 1129.91 389.261 1129.91 389.261Z" fill="#000099" fill-rule="evenodd" clip-rule="evenodd"/><path d="M1199.12 389.261C1205.59 389.437 1207.81 389.52 1209.76 389.52 1216.05 389.52 1220.73 388.332 1225.33 385.604 1233.67 380.584 1239.03 371.313 1239.03 361.69 1239.03 353.101 1234.01 347.141 1226.85 347.141 1221.41 347.141 1216.73 349.692 1212.57 354.971L1218.18 328.246 1211.79 328.246 1199.12 389.261 1199.12 389.261ZM1211.46 360.673C1217.5 354.371 1220.73 352.326 1224.9 352.326 1229.42 352.326 1232.39 356.158 1232.39 361.865 1232.39 368.668 1229.24 375.651 1224.13 379.989 1220.14 383.476 1215.63 385.005 1209.76 385.005L1206.35 384.922 1211.46 360.673 1211.46 360.673Z" fill="#000099" fill-rule="evenodd" clip-rule="evenodd"/><path d="M1254.1 348.328 1248.14 377.345C1247.71 379.391 1247.45 381.266 1247.45 382.97 1247.45 387.309 1250.86 390.459 1255.64 390.459 1261.42 390.459 1266.61 387.391 1272.65 380.666L1270.52 389.261 1276.91 389.261 1285.42 348.328 1279.03 348.328 1273.41 375.475C1266.61 382.628 1262.44 385.18 1258.01 385.18 1255.8 385.18 1254.1 383.558 1254.1 381.518 1254.1 380.583 1254.44 378.46 1254.87 376.157L1260.66 348.328 1254.1 348.328 1254.1 348.328Z" fill="#000099"/><path d="M1291.37 389.261 1297.75 389.261 1303.63 361.008C1308.31 354.795 1310.52 353.266 1314.69 353.266 1315.96 353.266 1316.64 353.442 1318.17 353.866L1319.88 347.652C1318.26 347.311 1317.49 347.223 1316.48 347.223 1311.8 347.223 1307.71 349.951 1304.31 355.477L1306.26 348.329 1299.88 348.329 1291.37 389.261 1291.37 389.261Z" fill="#000099" fill-rule="evenodd" clip-rule="evenodd"/><path d="M1359.46 348.421 1347.2 348.669C1344.22 347.481 1342.7 347.141 1340.14 347.141 1335.71 347.141 1331.97 348.504 1329.08 351.138 1326.01 353.948 1323.97 358.286 1323.97 362.206 1323.97 366.71 1325.76 369.778 1329.42 371.818L1322.52 375.475C1320.23 376.755 1318.78 378.285 1318.78 379.648 1318.78 380.924 1319.63 381.947 1321.33 382.881 1322.7 383.734 1324.15 384.074 1328.48 384.921 1320.15 387.989 1315.63 392.41 1315.63 397.519 1315.63 404.156 1322.6 408.918 1332.48 408.918 1343.97 408.918 1352.83 402.622 1352.83 394.368 1352.83 389.6 1348.91 385.685 1342.26 383.733L1331.81 380.753C1326.95 379.39 1326.27 379.049 1326.27 378.026 1326.27 377.343 1326.86 376.662 1327.98 376.073L1332.4 373.522C1334.61 374.369 1335.71 374.544 1337.59 374.544 1346.44 374.544 1353.34 368.154 1353.34 359.988 1353.34 356.668 1352.4 354.286 1350.53 352.417L1358.6 352.417 1359.46 348.421 1359.46 348.421ZM1340.05 350.973C1344.39 350.973 1347.2 354.206 1347.2 359.227 1347.2 365.523 1342.94 370.543 1337.68 370.543 1333.16 370.543 1330.19 367.393 1330.19 362.795 1330.19 356.241 1334.53 350.973 1340.05 350.973L1340.05 350.973ZM1336.99 387.814C1341.5 389.177 1341.5 389.177 1342.18 389.519 1344.82 390.79 1346.26 392.751 1346.26 395.05 1346.26 400.411 1340.31 404.75 1333 404.75 1326.44 404.75 1321.5 401.341 1321.5 396.754 1321.5 393.18 1324.65 390.117 1332.31 386.367L1336.99 387.814 1336.99 387.814Z" fill="#000099" fill-rule="evenodd" clip-rule="evenodd"/><path d="M224.449 1.978 224.449 60.725 304.899 60.725 304.052 285.914 378.976 285.914 379.823 60.725 455.593 60.725 455.593 1.978 224.449 1.978Z" fill="#2DC6D6"/><path d="M644.106 1.978 643.259 160.337C643.259 194.818 641.554 206.316 636.017 216.527 629.21 227.59 615.161 234.837 599.408 234.837 580.256 234.837 564.503 225.039 558.542 209.715 554.709 199.504 553.863 186.73 553.863 150.544L554.286 1.978 479.362 1.978 478.939 148.845 478.939 160.337C478.939 214.395 481.067 227.167 494.269 247.177 513.845 276.974 550.454 294.002 595.152 294.002 653.475 294.002 696.469 269.742 711.365 228.871 716.902 214.394 717.759 202.055 718.182 160.337L718.606 1.978 644.106 1.978 644.106 1.978Z" fill="#2DC6D6"/><path d="M988.386 285.914 989.656 1.978 914.743 1.978 914.319 111.807 818.952 111.807 819.387 1.978 744.463 1.978 743.182 285.914 818.105 285.914 818.952 173.11 913.886 173.11 913.462 285.914 988.386 285.914Z" fill="#2DC6D6"/><path d="M1263.29 285.914 1264.57 1.978 1189.66 1.978 1189.22 111.807 1093.86 111.807 1094.29 1.978 1019.36 1.978 1018.09 285.914 1093.02 285.914 1093.86 173.11 1188.8 173.11 1188.38 285.914 1263.29 285.914Z" fill="#2DC6D6"/></g></svg>